<?xml version="1.0" encoding="UTF-8"?>
<svg width="50px" height="50px" viewBox="0 0 50 50" version="1.1" xmlns="http://www.w3.org/2000/svg" xmlns:xlink="http://www.w3.org/1999/xlink">
    <title>icon</title>
    <g id="Page-1" stroke="none" stroke-width="1" fill="none" fill-rule="evenodd">
        <g id="icon" fill-rule="nonzero">
            <rect id="Rectangle" fill="#FFEFCC" x="0" y="0" width="50" height="50" rx="5"></rect>
            <path d="M19.0020168,19.7154034 L24.7187731,19.7154034 C25.1134454,19.7154034 25.4333193,19.395916 25.4333193,19.0008571 C25.4333193,18.6057983 25.1134454,18.2863109 24.7187731,18.2863109 L19.0020168,18.2863109 C18.6073445,18.2863109 18.2872773,18.6057983 18.2872773,19.0008571 C18.2872773,19.395916 18.6073445,19.7154034 19.0020168,19.7154034 Z" id="Path" fill="#B9933E" opacity="0.87"></path>
            <path d="M19.0020168,24.7176134 L24.7187731,24.7176134 C25.1134454,24.7176134 25.4333193,24.3981261 25.4333193,24.0030672 C25.4333193,23.6082017 25.1134454,23.288521 24.7187731,23.288521 L19.0020168,23.288521 C18.6073445,23.288521 18.2872773,23.6082017 18.2872773,24.0030672 C18.2872773,24.3981261 18.6073445,24.7176134 19.0020168,24.7176134 Z" id="Path" fill="#B9933E" opacity="0.87"></path>
            <path d="M30.4355294,35.4381261 C27.6772689,35.4381261 25.4333193,33.1937899 25.4333193,30.435916 C25.4333193,27.678042 27.6772689,25.4337059 30.4355294,25.4337059 C33.1937899,25.4337059 35.4377395,27.678042 35.4377395,30.435916 C35.4377395,33.1937899 33.1937899,35.4381261 30.4355294,35.4381261 Z M15.4292857,32.5797479 L15.4292857,15.4292857 L28.2918908,15.4292857 L28.2918908,24.3795714 C26.4702521,25.0264706 25.0272437,26.4690924 24.379958,28.2907311 L19.0020168,28.2907311 C18.6073445,28.2907311 18.2872773,28.6104118 18.2872773,29.0052773 C18.2872773,29.4003361 18.6073445,29.7198235 19.0020168,29.7198235 L24.0465546,29.7198235 C24.0202689,29.9552353 24.0042269,30.1935462 24.0042269,30.435916 C24.0042269,31.1885378 24.1408739,31.907916 24.3793782,32.5797479 L15.4292857,32.5797479 Z M30.4355294,24.0044202 C30.1939328,24.0044202 29.9562017,24.0204622 29.7211765,24.0465546 L29.7211765,14.7147395 C29.7211765,14.3196807 29.4013025,14 29.0066303,14 L14.7145462,14 C14.3200672,14 14,14.3196807 14,14.7147395 L14,33.2942941 C14,33.6893529 14.3200672,34.0088403 14.7145462,34.0088403 L25.091605,34.0088403 C26.2468235,35.7311345 28.2107143,36.8674118 30.4355294,36.8674118 C33.9817815,36.8674118 36.8670252,33.9823613 36.8670252,30.435916 C36.8670252,26.8894706 33.9817815,24.0044202 30.4355294,24.0044202 Z" id="Shape" fill="#B9933E"></path>
            <path d="M31.8648151,29.7213697 L31.1502689,29.7213697 L31.1502689,27.5775378 C31.1502689,27.182479 30.8302017,26.8629916 30.4355294,26.8629916 C30.0408571,26.8629916 29.7207899,27.182479 29.7207899,27.5775378 L29.7207899,30.435916 C29.7207899,30.8307815 30.0408571,31.1504622 30.4355294,31.1504622 L31.8648151,31.1504622 C32.2594874,31.1504622 32.5793613,30.8307815 32.5793613,30.435916 C32.5793613,30.0408571 32.2594874,29.7213697 31.8648151,29.7213697 L31.8648151,29.7213697 Z" id="Path" fill="#B9933E" opacity="0.86649"></path>
        </g>
    </g>
</svg>