<?xml version="1.0" encoding="UTF-8"?>
<svg width="50px" height="50px" viewBox="0 0 50 50" version="1.1" xmlns="http://www.w3.org/2000/svg" xmlns:xlink="http://www.w3.org/1999/xlink">
    <!-- Generator: Sketch 52.1 (67048) - http://www.bohemiancoding.com/sketch -->
    <title>Untitled</title>
    <desc>Created with Sketch.</desc>
    <g id="Page-1" stroke="none" stroke-width="1" fill="none" fill-rule="evenodd">
        <g id="agg_sum">
            <rect id="Rectangle" fill="#FFFFFF" x="0" y="0" width="50" height="50" rx="5"></rect>
            <path d="M16.0993546,34.2139532 C16.3005384,34.6899482 16.7725671,35 17.2954678,35 L33.7040925,35 C34.4196688,35 34.9996455,34.4286313 34.9996455,33.7231106 L34.9996455,29.8936653 L32.4083622,29.8936653 L32.4083622,32.4465707 L20.408411,32.4465707 L24.56946,26.5604776 C25.044502,26.0890242 25.0735718,25.3370394 24.6355759,24.8318733 L20.1044196,17.5532547 L32.4087167,17.5532547 L32.4087167,19.9763749 L35,19.9763749 L35,16.2767147 C35,15.5715434 34.4202006,15 33.704447,15 L17.2954678,15 C16.7901153,15 16.3308489,15.2897893 16.1192071,15.7422029 C15.9075652,16.1946165 15.9823666,16.7268575 16.3101102,17.1055574 L21.8907903,25.5955615 L16.3765806,32.8236984 C16.007714,33.1894722 15.8985253,33.7377835 16.0993546,34.2139532 Z" id="Shape" fill="#000000"></path>
        </g>
    </g>
</svg>