<?xml version="1.0" encoding="UTF-8"?>
<svg width="40px" height="40px" viewBox="0 0 40 40" version="1.1" xmlns="http://www.w3.org/2000/svg" xmlns:xlink="http://www.w3.org/1999/xlink">
    <!-- Generator: Sketch 64 (93537) - https://sketch.com -->
    <title>completion-auto-fail</title>
    <desc>Created with Sketch.</desc>
    <g id="Page-1" stroke="none" stroke-width="1" fill="none" fill-rule="evenodd">
        <g id="completion-auto-fail">
            <path d="M20,0 L20,0 C31.045695,0 40,8.954305 40,20 L40,20 C40,31.045695 31.045695,40 20,40 L20,40 C8.954305,40 0,31.045695 0,20 L0,20 C0,8.954305 8.954305,0 20,0 Z" id="Rectangle-9" fill="#FFE3E2"></path>
            <g id="times-solid-(2)" transform="translate(15.000000, 15.000000)" fill="#F96E6A" fill-rule="nonzero">
                <path d="M6.89545455,5 L9.73835227,2.15710227 C10.0872159,1.80823864 10.0872159,1.24261364 9.73835227,0.893465909 L9.10653409,0.261647727 C8.75767045,-0.0872159091 8.19204545,-0.0872159091 7.84289773,0.261647727 L5,3.10454545 L2.15710227,0.261647727 C1.80823864,-0.0872159091 1.24261364,-0.0872159091 0.893465909,0.261647727 L0.261647727,0.893465909 C-0.0872159091,1.24232955 -0.0872159091,1.80795455 0.261647727,2.15710227 L3.10454545,5 L0.261647727,7.84289773 C-0.0872159091,8.19176136 -0.0872159091,8.75738636 0.261647727,9.10653409 L0.893465909,9.73835227 C1.24232955,10.0872159 1.80823864,10.0872159 2.15710227,9.73835227 L5,6.89545455 L7.84289773,9.73835227 C8.19176136,10.0872159 8.75767045,10.0872159 9.10653409,9.73835227 L9.73835227,9.10653409 C10.0872159,8.75767045 10.0872159,8.19204545 9.73835227,7.84289773 L6.89545455,5 Z" id="Path"></path>
            </g>
        </g>
    </g>
</svg>