<?xml version="1.0" encoding="UTF-8"?>
<svg width="504px" height="512px" viewBox="0 0 504 512" version="1.1" xmlns="http://www.w3.org/2000/svg" xmlns:xlink="http://www.w3.org/1999/xlink">
    <!-- Generator: Sketch 64 (93537) - https://sketch.com -->
    <title>flagged</title>
    <desc>Created with Sketch.</desc>
    <g id="Page-1" stroke="none" stroke-width="1" fill="none" fill-rule="evenodd">
        <g id="flagged" fill="#FFFFFF" fill-rule="nonzero">
            <path d="M341.565,98.783 C287.978,98.783 243.721,64 176.348,64 C151.393,64 129.039,68.384 108.303,76.013 C111.176771,68.5077213 112.399853,60.4713989 111.889,52.451 C110.117,24.015 86.806,1.206 58.338,0.048 C26.345,-1.254 0,24.296 0,56 C0,75.026 9.497,91.825 24,101.945 L24,488 C24,501.255 34.745,512 48,512 L64,512 C77.255,512 88,501.255 88,488 L88,393.6 C116.311,381.536 151.582,371.478 202.435,371.478 C256.023,371.478 300.279,406.261 367.652,406.261 C415.821,406.261 454.319,389.967 490.157,365.403 C498.84,359.452 504,349.571 504,339.045 L504,95.945 C504,72.552 479.731,57.075 458.515,66.929 C424.177,82.877 382.061,98.783 341.565,98.783 Z" id="Path"></path>
        </g>
    </g>
</svg>